# xmcd
#
# Track frame offsets:
#	150
#	14242
#	31440
#	48664
#	61877
#	83797
#	100713
#	114400
#	136178
#	156781
#	168827
#
# Disc length: 2539 seconds
#
# Revision: 0
# Processed by: cddbd v1.5.2PL0 Copyright (c) Steve Scherf et al.
# Submitted via: dBpowerAMP V4.0
#
DISCID=8809e90b
DTITLE=Fabiano Pimenta - As Ruas e as Serestas
DYEAR=1974
DGENRE=Blues
TTITLE0=Diamantina em Serenata
TTITLE1=Meiga Virgem
TTITLE2=Varrer-te da Memória
TTITLE3=As Ruas e as Serestas
TTITLE4=Elvira Escura
TTITLE5=É a Ti Flor do Céus
TTITLE6=Acorda Minha Beleza
TTITLE7=Sonhei
TTITLE8=Gandoleiro do Amor
TTITLE9=Noite Cheia de Estrelas
TTITLE10=Sonhei
EXTD=
EXTT0=
EXTT1=
EXTT2=
EXTT3=
EXTT4=
EXTT5=
EXTT6=
EXTT7=
EXTT8=
EXTT9=
EXTT10=
PLAYORDER=
